<?xml version="1.0" encoding="UTF-8"?>
<!-- Generator: Adobe Illustrator 21.0.2, SVG Export Plug-In . SVG Version: 6.00 Build 0)  -->
<svg version="1.1" id="Layer_1" xmlns="http://www.w3.org/2000/svg" xmlns:xlink="http://www.w3.org/1999/xlink" x="0px" y="0px" viewBox="0 0 297.5 211.149" enable-background="new 0 0 297.5 211.149" xml:space="preserve">
<g>
	<rect x="2.446" y="37.172" fill="#BCC6C6" width="292.478" height="172.293"/>
	<polygon fill="#F5F7F7" points="42.38,38.042 122.299,38.015 122.299,207.825 42.38,207.825  "/>
	<path fill="#C8C8C8" d="M292.186,1H5.135C3.622,1,2.396,2.226,2.396,3.739v12.145h292.53V3.739C294.925,2.226,293.699,1,292.186,1z   "/>
	<rect x="2.396" y="15.884" fill="#E6E6E5" width="292.53" height="22.144"/>
	<path fill="#C8C8C8" d="M22.22,29.845c0.222-0.217,2.395-2.498,2.395-2.498c0.118-0.116,0.178-0.268,0.178-0.419   c0-0.152-0.06-0.304-0.178-0.419c0,0-2.172-2.281-2.395-2.497c-0.222-0.217-0.622-0.232-0.859,0c-0.237,0.231-0.256,0.554,0,0.838   l1.993,2.079l-1.993,2.078c-0.256,0.284-0.237,0.607,0,0.838C21.597,30.076,21.998,30.062,22.22,29.845z"/>
	<path fill="#C8C8C8" d="M12.608,24.012c-0.222,0.217-2.394,2.498-2.394,2.498c-0.118,0.116-0.178,0.267-0.178,0.419   c0,0.151,0.06,0.303,0.178,0.419c0,0,2.172,2.281,2.394,2.498c0.222,0.216,0.622,0.231,0.859,0s0.256-0.554,0-0.838l-1.993-2.078   l1.993-2.079c0.256-0.284,0.237-0.607,0-0.838C13.23,23.78,12.83,23.795,12.608,24.012z"/>
	<path fill="#D7D6D6" d="M48.693,15.928c4.036,0.002,3.869-10.38,7.233-10.38l38.48,0.003c4.036-0.002,3.869,10.38,7.233,10.38   L48.693,15.928z"/>
	<path fill="#E6E6E5" d="M2.95,15.996c4.036,0.002,3.869-10.38,7.233-10.38l38.479,0.003c4.036-0.002,3.869,10.38,7.233,10.38   L2.95,15.996z"/>
	<path fill="#C8C8C8" d="M38.4,26.664h-1.121l-0.008-0.074c-0.167-1.58-1.492-2.771-3.082-2.771c-1.71,0-3.101,1.395-3.101,3.109   c0,1.715,1.391,3.11,3.101,3.11c0.7,0,1.36-0.228,1.91-0.66l0.164-0.129l-0.759-0.812l-0.137,0.101   c-0.344,0.253-0.751,0.387-1.177,0.387c-1.097,0-1.99-0.896-1.99-1.998c0-1.101,0.893-1.997,1.99-1.997   c0.964,0,1.787,0.688,1.957,1.635l0.017,0.097h-1.24l1.738,1.938L38.4,26.664z"/>
	<circle fill="#70B349" cx="266.216" cy="8.342" r="3.075"/>
	<circle fill="#DEAB54" cx="276.625" cy="8.342" r="3.075"/>
	<circle fill="#D5655D" cx="287.083" cy="8.342" r="3.075"/>
	<g>
		<path fill="#C8C8C8" d="M287.825,26.295h-6.42c-0.295,0-0.535,0.284-0.535,0.633s0.24,0.633,0.535,0.633h6.42    c0.295,0,0.535-0.284,0.535-0.633S288.121,26.295,287.825,26.295z M281.405,25.028h6.42c0.295,0,0.535-0.284,0.535-0.633    c0-0.35-0.24-0.634-0.535-0.634h-6.42c-0.295,0-0.535,0.284-0.535,0.634C280.87,24.744,281.11,25.028,281.405,25.028z     M287.825,28.829h-6.42c-0.295,0-0.535,0.283-0.535,0.633s0.24,0.634,0.535,0.634h6.42c0.295,0,0.535-0.284,0.535-0.634    C288.36,29.112,288.121,28.829,287.825,28.829z"/>
	</g>
	<circle opacity="0.9" fill="#D6D5D5" enable-background="new    " cx="46.61" cy="11.313" r="1.999"/>
	<circle fill="#C7C6C6" cx="92.628" cy="11.313" r="1.999"/>
	<path fill="#FFFFFF" d="M276.06,32.701H43.375c-0.989,0-1.798-0.809-1.798-1.798v-7.949c0-0.989,0.809-1.798,1.798-1.798H276.06   c0.989,0,1.798,0.809,1.798,1.798v7.949C277.858,31.891,277.049,32.701,276.06,32.701z"/>
	<polygon fill="#E6E6E5" points="271.868,27.949 274.037,29.641 273.132,27.012 275.378,25.429 272.649,25.495 271.868,22.825    271.088,25.495 268.359,25.429 270.605,27.012 269.699,29.641  "/>
	<rect x="134.692" y="69.506" fill="#FFFFFF" width="158.588" height="130.122"/>
	<rect x="124.23" y="38.015" fill="#EAEFEF" width="169.049" height="33.167"/>
	<rect x="42.115" y="197.732" fill="#EAEFEF" width="251.165" height="10.047"/>
	<rect x="4.372" y="38.029" fill="#089FA4" width="38.329" height="169.751"/>
	<rect x="121.726" y="38.015" fill="#EAEFEF" width="12.964" height="169.106"/>
	<rect x="169.021" y="47.543" fill="#FFFFFF" width="96.892" height="14.578"/>
	<polygon fill="#D7E1E1" points="261.172,54.128 259.017,56.71 256.862,54.128  "/>
	<g>
		<rect x="141.442" y="78.659" fill="none" width="73.383" height="65.337"/>
		<g enable-background="new    ">
			<path fill="#1A989C" d="M143.468,84.611l-1.487-4.166h0.957l1.13,3.453l1.122-3.453h0.939l-1.531,4.166H143.468z"/>
			<path fill="#1A989C" d="M149.265,80.341c1.331,0,2.14,0.792,2.14,2.166c0,1.218-0.792,2.191-2.131,2.191     c-1.296,0-2.14-0.774-2.14-2.191C147.134,81.22,147.995,80.341,149.265,80.341z M149.248,83.977c0.878,0,1.2-0.539,1.2-1.47     c0-0.844-0.322-1.444-1.2-1.444c-0.817,0-1.157,0.583-1.157,1.444C148.091,83.446,148.456,83.977,149.248,83.977z"/>
			<path fill="#1A989C" d="M152.548,83.881h1.462v-2.705h-1.462v-0.73h2.366v3.436h1.496v0.73h-3.862V83.881z M154.471,78.506     c0.304,0,0.548,0.243,0.548,0.548c0,0.296-0.244,0.53-0.548,0.53c-0.296,0-0.531-0.234-0.531-0.53     C153.939,78.749,154.175,78.506,154.471,78.506z"/>
			<path fill="#1A989C" d="M161.65,84.611h-0.835l-0.018-0.548c-0.356,0.356-0.922,0.635-1.435,0.635     c-1.104,0-1.714-0.826-1.714-2.096c0-1.4,0.888-2.262,2.184-2.262c0.304,0,0.617,0.044,0.913,0.104v-1.792h0.904V84.611z      M160.746,81.289c-0.235-0.148-0.496-0.218-0.87-0.218c-0.791,0-1.27,0.522-1.27,1.444c0,0.956,0.408,1.383,1.026,1.383     c0.348,0,0.8-0.2,1.113-0.505V81.289z"/>
		</g>
		<g>
			<g>
				<path fill="#7B9445" d="M169.764,81.541c0-0.809,0.826-1.2,1.757-1.2c0.591,0,1.226,0.113,1.6,0.33l-0.261,0.783      c-0.226-0.209-0.757-0.417-1.27-0.417c-0.4,0-0.904,0.087-0.904,0.461c0,0.73,2.521,0.382,2.521,1.922      c0,1-1.061,1.278-1.948,1.278c-0.635,0-1.226-0.131-1.574-0.348l0.235-0.792c0.305,0.244,0.817,0.436,1.348,0.436      c0.479,0,1.001-0.131,1.001-0.531C172.269,82.541,169.764,83.002,169.764,81.541z"/>
				<path fill="#7B9445" d="M178.317,83.533l0.234,0.722c-0.417,0.243-0.966,0.443-1.688,0.443c-1.147,0-2.113-0.652-2.113-2.191      c0-1.409,0.939-2.166,1.992-2.166c1.069,0,1.86,0.592,1.86,2.088c0,0.043,0,0.217-0.008,0.27h-2.914      c0.078,0.913,0.652,1.278,1.392,1.278C177.517,83.977,178.047,83.75,178.317,83.533z M177.69,82.107      c0.018-0.696-0.374-1.104-0.931-1.104c-0.626,0-0.991,0.321-1.069,1.104H177.69z"/>
				<path fill="#7B9445" d="M181.67,83.124c0,0.661,0.33,0.835,0.809,0.835c0.339,0,0.73-0.156,1-0.33l0.165,0.739      c-0.399,0.217-0.913,0.33-1.374,0.33c-0.8,0-1.505-0.33-1.505-1.427v-2.087h-0.974V80.55l0.991-0.062l0.113-1.104h0.774v1.113      h1.766v0.688h-1.766V83.124z"/>
				<path fill="#7B9445" d="M188.015,80.445h0.904v4.166h-0.817l-0.035-0.548c-0.452,0.452-1,0.644-1.461,0.644      c-0.695,0-1.479-0.27-1.479-1.461v-2.801h0.904v2.531c0,0.756,0.331,0.965,0.81,0.965c0.391,0,0.835-0.243,1.174-0.539V80.445z"/>
				<path fill="#7B9445" d="M191.271,84.594v1.931h-0.904v-6.079h0.835l0.018,0.521c0.356-0.348,0.896-0.626,1.408-0.626      c1.104,0,1.74,0.817,1.74,2.096c0,1.4-0.922,2.262-2.218,2.262C191.897,84.698,191.585,84.655,191.271,84.594z M191.271,83.759      c0.234,0.148,0.539,0.2,0.835,0.2c0.791,0,1.305-0.513,1.305-1.436c0-0.956-0.435-1.391-1.053-1.391      c-0.348,0-0.773,0.208-1.087,0.513V83.759z"/>
			</g>
		</g>
		<g>
			<g>
				<path fill="#2C353A" d="M199.581,78.35l0.496,0.504c-0.957,0.809-1.705,1.87-1.705,3.453c0,1.652,0.739,2.661,1.714,3.505      l-0.452,0.487c-1.349-0.957-2.122-2.349-2.122-3.949C197.512,80.671,198.312,79.297,199.581,78.35z"/>
				<path fill="#2C353A" d="M203.178,86.299l-0.452-0.487c0.974-0.844,1.713-1.853,1.713-3.505c0-1.583-0.748-2.645-1.705-3.453      l0.496-0.504c1.27,0.947,2.07,2.33,2.07,4C205.3,83.959,204.525,85.342,203.178,86.299z"/>
				<path fill="#2C353A" d="M208.722,84.794v-1.835c0-0.296-0.174-0.418-0.539-0.436c-0.026-0.008-0.183-0.008-0.218-0.008v-0.583      c0.035,0,0.183,0,0.209-0.009c0.348-0.018,0.548-0.14,0.548-0.435v-1.836c0-0.739,0.209-1.392,1.409-1.392h0.365v0.557h-0.322      c-0.644,0-0.739,0.262-0.739,0.827v1.365c0,0.626-0.104,1.061-0.687,1.209c0.548,0.104,0.687,0.583,0.687,1.191v1.4      c0,0.557,0.062,0.809,0.705,0.809h0.356v0.565h-0.392C208.904,86.186,208.722,85.638,208.722,84.794z"/>
			</g>
		</g>
		<g>
			<g>
				<path fill="#2C353A" d="M148.004,99.704v-0.565h0.348c0.652,0,0.713-0.252,0.713-0.809v-1.4c0-0.608,0.13-1.087,0.687-1.191      c-0.583-0.148-0.687-0.583-0.687-1.209v-1.365c0-0.565-0.096-0.827-0.748-0.827h-0.313V91.78h0.356      c1.2,0,1.418,0.652,1.418,1.392v1.836c0,0.312,0.208,0.426,0.583,0.443h0.174v0.583h-0.183c-0.382,0.017-0.574,0.13-0.574,0.443      v1.835c0,0.844-0.191,1.392-1.392,1.392H148.004z"/>
			</g>
		</g>
		<g>
			<g>
				<path fill="#1A989C" d="M143.468,125.166L141.981,121h0.957l1.13,3.453L145.19,121h0.939l-1.531,4.166H143.468z"/>
				<path fill="#1A989C" d="M149.265,120.895c1.331,0,2.14,0.792,2.14,2.166c0,1.218-0.792,2.191-2.131,2.191      c-1.296,0-2.14-0.774-2.14-2.191C147.134,121.774,147.995,120.895,149.265,120.895z M149.248,124.531      c0.878,0,1.2-0.539,1.2-1.47c0-0.844-0.322-1.444-1.2-1.444c-0.817,0-1.157,0.583-1.157,1.444      C148.091,124.001,148.456,124.531,149.248,124.531z"/>
				<path fill="#1A989C" d="M152.548,124.435h1.462v-2.705h-1.462V121h2.366v3.436h1.496v0.73h-3.862V124.435z M154.471,119.06      c0.304,0,0.548,0.243,0.548,0.548c0,0.296-0.244,0.53-0.548,0.53c-0.296,0-0.531-0.234-0.531-0.53      C153.939,119.303,154.175,119.06,154.471,119.06z"/>
				<path fill="#1A989C" d="M161.65,125.166h-0.835l-0.018-0.548c-0.356,0.356-0.922,0.635-1.435,0.635      c-1.104,0-1.714-0.826-1.714-2.096c0-1.4,0.888-2.262,2.184-2.262c0.304,0,0.617,0.044,0.913,0.104v-1.792h0.904V125.166z       M160.746,121.843c-0.235-0.148-0.496-0.218-0.87-0.218c-0.791,0-1.27,0.522-1.27,1.444c0,0.956,0.408,1.383,1.026,1.383      c0.348,0,0.8-0.2,1.113-0.505V121.843z"/>
			</g>
		</g>
		<g>
			<path fill="#7B9445" d="M169.468,124.435h1.505v-4.506h-1.436v-0.722h2.34v5.228h1.452v0.73h-3.861V124.435z"/>
			<path fill="#7B9445" d="M176.639,120.895c1.33,0,2.14,0.792,2.14,2.166c0,1.218-0.792,2.191-2.131,2.191     c-1.296,0-2.14-0.774-2.14-2.191C174.508,121.774,175.368,120.895,176.639,120.895z M176.621,124.531c0.878,0,1.2-0.539,1.2-1.47     c0-0.844-0.322-1.444-1.2-1.444c-0.817,0-1.157,0.583-1.157,1.444C175.464,124.001,175.829,124.531,176.621,124.531z"/>
			<path fill="#7B9445" d="M181.853,120.895c1.33,0,2.14,0.792,2.14,2.166c0,1.218-0.792,2.191-2.131,2.191     c-1.296,0-2.14-0.774-2.14-2.191C179.722,121.774,180.582,120.895,181.853,120.895z M181.835,124.531c0.878,0,1.2-0.539,1.2-1.47     c0-0.844-0.322-1.444-1.2-1.444c-0.817,0-1.157,0.583-1.157,1.444C180.678,124.001,181.043,124.531,181.835,124.531z"/>
			<path fill="#7B9445" d="M186.058,125.148v1.931h-0.904V121h0.835l0.018,0.521c0.356-0.348,0.896-0.626,1.408-0.626     c1.104,0,1.74,0.817,1.74,2.096c0,1.4-0.922,2.262-2.218,2.262C186.684,125.253,186.371,125.21,186.058,125.148z      M186.058,124.313c0.234,0.148,0.539,0.2,0.835,0.2c0.791,0,1.305-0.513,1.305-1.436c0-0.956-0.435-1.391-1.053-1.391     c-0.348,0-0.773,0.208-1.087,0.513V124.313z"/>
		</g>
		<g>
			<g>
				<path fill="#2C353A" d="M194.106,118.904l0.495,0.504c-0.956,0.809-1.704,1.87-1.704,3.453c0,1.652,0.739,2.661,1.713,3.505      l-0.452,0.487c-1.348-0.957-2.122-2.349-2.122-3.949C192.036,121.225,192.836,119.851,194.106,118.904z"/>
				<path fill="#2C353A" d="M197.702,126.853l-0.452-0.487c0.974-0.844,1.714-1.853,1.714-3.505c0-1.583-0.748-2.645-1.705-3.453      l0.496-0.504c1.27,0.947,2.069,2.33,2.069,4C199.824,124.513,199.051,125.896,197.702,126.853z"/>
				<path fill="#2C353A" d="M203.247,125.348v-1.835c0-0.296-0.175-0.418-0.54-0.436c-0.025-0.008-0.183-0.008-0.217-0.008v-0.583      c0.034,0,0.183,0,0.208-0.009c0.349-0.018,0.549-0.14,0.549-0.435v-1.836c0-0.739,0.208-1.392,1.408-1.392h0.365v0.557h-0.321      c-0.644,0-0.739,0.262-0.739,0.827v1.365c0,0.626-0.104,1.061-0.688,1.209c0.548,0.104,0.688,0.583,0.688,1.191v1.4      c0,0.557,0.061,0.809,0.704,0.809h0.356v0.565h-0.391C203.43,126.74,203.247,126.192,203.247,125.348z"/>
			</g>
		</g>
		<g>
			<g>
				<path fill="#2C353A" d="M148.004,140.257v-0.565h0.348c0.652,0,0.713-0.252,0.713-0.809v-1.4c0-0.608,0.13-1.087,0.687-1.191      c-0.583-0.148-0.687-0.583-0.687-1.209v-1.365c0-0.565-0.096-0.827-0.748-0.827h-0.313v-0.557h0.356      c1.2,0,1.418,0.652,1.418,1.392v1.836c0,0.312,0.208,0.426,0.583,0.443h0.174v0.583h-0.183c-0.382,0.017-0.574,0.13-0.574,0.443      v1.835c0,0.844-0.191,1.392-1.392,1.392H148.004z"/>
			</g>
		</g>
	</g>
	<circle fill="#FFFFFF" cx="9.44" cy="72.248" r="1.656"/>
	<rect x="14.5" y="71.149" fill="#FFFFFF" width="11" height="1"/>
	<rect x="14.5" y="81.149" fill="#FFFFFF" width="11" height="1"/>
	<rect x="14.5" y="91.149" fill="#FFFFFF" width="11" height="1"/>
	<rect x="14.5" y="99.149" fill="#FFFFFF" width="11" height="1"/>
	<rect x="14.5" y="109.149" fill="#FFFFFF" width="11" height="1"/>
	<rect x="14.5" y="118.149" fill="#FFFFFF" width="11" height="1"/>
	<circle fill="#FFFFFF" cx="9.44" cy="81.671" r="1.656"/>
	<circle fill="#FFFFFF" cx="9.44" cy="91.094" r="1.656"/>
	<circle fill="#FFFFFF" cx="9.44" cy="100.517" r="1.656"/>
	<circle fill="#FFFFFF" cx="9.44" cy="109.941" r="1.656"/>
	<circle fill="#FFFFFF" cx="9.44" cy="119.364" r="1.656"/>
	<path fill="#065D60" d="M9.46,54.81l-0.599-0.831l4.365-3.242l-4.38-3.089l0.599-0.83l4.964,3.535v0.8L9.46,54.81z"/>
	<rect x="50.5" y="71.149" fill="#D9E4E4" width="27" height="1"/>
	<rect x="50.5" y="94.149" fill="#D9E4E4" width="27" height="1"/>
	<rect x="50.5" y="100.149" fill="#D9E4E4" width="27" height="1"/>
	<rect x="50.5" y="79.149" fill="#D9E4E4" width="34" height="1"/>
	<rect x="50.5" y="86.149" fill="#D9E4E4" width="34" height="1"/>
	<rect x="50.5" y="116.149" fill="#D9E4E4" width="34" height="1"/>
	<rect x="50.5" y="123.149" fill="#D9E4E4" width="34" height="1"/>
	<rect x="50.5" y="108.149" fill="#D9E4E4" width="34" height="1"/>
	<rect x="50.5" y="131.149" fill="#D9E4E4" width="27" height="1"/>
	<rect x="50.5" y="154.149" fill="#D9E4E4" width="27" height="1"/>
	<rect x="50.5" y="160.149" fill="#D9E4E4" width="27" height="1"/>
	<rect x="50.5" y="139.149" fill="#D9E4E4" width="34" height="1"/>
	<rect x="50.5" y="146.149" fill="#D9E4E4" width="34" height="1"/>
	<rect x="50.5" y="176.149" fill="#D9E4E4" width="34" height="1"/>
	<rect x="50.5" y="183.149" fill="#D9E4E4" width="34" height="1"/>
	<rect x="50.5" y="168.149" fill="#D9E4E4" width="34" height="1"/>
	<rect x="52.141" y="47.633" fill="#BAE3E2" width="56.318" height="13.375"/>
	<rect x="150.3" y="47.543" fill="#D9E4E4" width="13.097" height="14.578"/>
	<rect x="134.894" y="47.543" fill="#D9E4E4" width="13.097" height="14.578"/>
	<rect x="269.421" y="47.543" fill="#D9E4E4" width="13.097" height="14.578"/>
	<g>
		<path fill="#92A2A3" d="M160.813,54.191l-2.73-2.684l-0.597,0.596l2.005,1.96h-7.082v0.852h7.082l-2.005,1.96l0.597,0.596    l2.73-2.684C160.983,54.66,160.983,54.362,160.813,54.191z"/>
	</g>
	<rect x="269.421" y="61.029" fill="#BAC5C4" width="13.097" height="1.091"/>
	<rect x="134.894" y="61.008" fill="#BAC5C4" width="13.097" height="1.091"/>
	<rect x="150.3" y="61.008" fill="#BAC5C4" width="13.097" height="1.091"/>
	<g>
		<g>
			<path fill="#92A2A3" d="M145.364,50.137l0.609,0.609l-5.437,5.429c-0.084,0.084-0.194,0.126-0.305,0.126     c-0.11,0-0.221-0.042-0.305-0.126l-2.74-2.735l0.609-0.609l2.435,2.431"/>
		</g>
	</g>
	<g>
		<circle fill="#92A2A3" cx="272.963" cy="54.832" r="0.807"/>
		<circle fill="#92A2A3" cx="275.97" cy="54.832" r="0.807"/>
		<circle fill="#92A2A3" cx="278.977" cy="54.832" r="0.807"/>
	</g>
</g>
</svg>